<svg id="visual" viewBox="0 0 900 600" width="900" height="600" xmlns="http://www.w3.org/2000/svg" xmlns:xlink="http://www.w3.org/1999/xlink" version="1.1"><g><g transform="translate(262 316)"><path d="M49.7 0.2C49.7 25.1 24.8 50.1 -0.6 50.1C-25.9 50.1 -51.9 25.1 -51.9 0.2C-51.9 -24.6 -25.9 -49.1 -0.6 -49.1C24.8 -49.1 49.7 -24.6 49.7 0.2Z" fill="#0A6ABF"></path></g><g transform="translate(410 218)"><path d="M30 0.3C30 16.7 15 33.3 -0.3 33.3C-15.6 33.3 -31.3 16.7 -31.3 0.3C-31.3 -16 -15.6 -32 -0.3 -32C15 -32 30 -16 30 0.3Z" fill="#0A6ABF"></path></g><g transform="translate(691 503)"><path d="M20.1 0C20.1 9.7 10.1 19.4 0.3 19.4C-9.5 19.4 -19.1 9.7 -19.1 0C-19.1 -9.6 -9.5 -19.3 0.3 -19.3C10.1 -19.3 20.1 -9.6 20.1 0Z" fill="#0A6ABF"></path></g><g transform="translate(119 464)"><path d="M28.7 -0.1C28.7 13.2 14.4 26.4 0.5 26.4C-13.3 26.4 -26.7 13.2 -26.7 -0.1C-26.7 -13.4 -13.3 -26.7 0.5 -26.7C14.4 -26.7 28.7 -13.4 28.7 -0.1Z" fill="#0A6ABF"></path></g><g transform="translate(600 336)"><path d="M39.7 -1C39.7 19.2 19.8 38.5 -0.3 38.5C-20.5 38.5 -41 19.2 -41 -1C-41 -21.2 -20.5 -42.4 -0.3 -42.4C19.8 -42.4 39.7 -21.2 39.7 -1Z" fill="#0A6ABF"></path></g><g transform="translate(429 519)"><path d="M48.4 0C48.4 22.5 24.2 44.9 0.3 44.9C-23.5 44.9 -47 22.5 -47 0C-47 -22.5 -23.5 -44.9 0.3 -44.9C24.2 -44.9 48.4 -22.5 48.4 0Z" fill="#0A6ABF"></path></g><g transform="translate(206 98)"><path d="M36.5 0.5C36.5 18.7 18.3 37.5 0 37.5C-18.2 37.5 -36.5 18.7 -36.5 0.5C-36.5 -17.7 -18.2 -35.5 0 -35.5C18.3 -35.5 36.5 -17.7 36.5 0.5Z" fill="#0A6ABF"></path></g><g transform="translate(738 86)"><path d="M30.3 -0.6C30.3 14.7 15.1 29.4 -0.1 29.4C-15.4 29.4 -30.8 14.7 -30.8 -0.6C-30.8 -15.8 -15.4 -31.6 -0.1 -31.6C15.1 -31.6 30.3 -15.8 30.3 -0.6Z" fill="#0A6ABF"></path></g><g transform="translate(783 263)"><path d="M39 0.3C39 19.8 19.5 39.7 -0.4 39.7C-20.3 39.7 -40.7 19.8 -40.7 0.3C-40.7 -19.3 -20.3 -38.7 -0.4 -38.7C19.5 -38.7 39 -19.3 39 0.3Z" fill="#0A6ABF"></path></g><g transform="translate(85 282)"><path d="M22.5 0.1C22.5 10.9 11.3 21.8 0.1 21.8C-11 21.8 -22 10.9 -22 0.1C-22 -10.8 -11 -21.5 0.1 -21.5C11.3 -21.5 22.5 -10.8 22.5 0.1Z" fill="#0A6ABF"></path></g><g transform="translate(544 87)"><path d="M41 0.8C41 21.9 20.5 43.8 -0.4 43.8C-21.3 43.8 -42.5 21.9 -42.5 0.8C-42.5 -20.3 -21.3 -40.7 -0.4 -40.7C20.5 -40.7 41 -20.3 41 0.8Z" fill="#0A6ABF"></path></g></g></svg>