<?xml version="1.0" standalone="no"?>
<svg xmlns:xlink="http://www.w3.org/1999/xlink" id="wave" style="transform:rotate(0deg); transition: 0.3s" viewBox="0 0 1440 200" version="1.1" xmlns="http://www.w3.org/2000/svg"><defs><linearGradient id="sw-gradient-0" x1="0" x2="0" y1="1" y2="0"><stop stop-color="rgba(10, 106, 191, 1)" offset="0%"/><stop stop-color="rgba(255, 255, 255, 1)" offset="100%"/></linearGradient></defs><path style="transform:translate(0, 0px); opacity:1" fill="url(#sw-gradient-0)" d="M0,140L130.9,100L261.8,180L392.7,20L523.6,20L654.5,180L785.5,160L916.4,40L1047.3,0L1178.2,80L1309.1,160L1440,40L1570.9,160L1701.8,60L1832.7,100L1963.6,120L2094.5,20L2225.5,180L2356.4,180L2487.3,20L2618.2,140L2749.1,160L2880,180L3010.9,100L3141.8,60L3141.8,200L3010.9,200L2880,200L2749.1,200L2618.2,200L2487.3,200L2356.4,200L2225.5,200L2094.5,200L1963.6,200L1832.7,200L1701.8,200L1570.9,200L1440,200L1309.1,200L1178.2,200L1047.3,200L916.4,200L785.5,200L654.5,200L523.6,200L392.7,200L261.8,200L130.9,200L0,200Z"/><defs><linearGradient id="sw-gradient-1" x1="0" x2="0" y1="1" y2="0"><stop stop-color="rgba(10, 106, 191, 1)" offset="0%"/><stop stop-color="rgba(255, 255, 255, 1)" offset="100%"/></linearGradient></defs><path style="transform:translate(0, 50px); opacity:0.9" fill="url(#sw-gradient-1)" d="M0,180L130.9,0L261.8,100L392.7,60L523.6,140L654.5,20L785.5,140L916.4,80L1047.3,0L1178.2,20L1309.1,0L1440,100L1570.9,20L1701.8,60L1832.7,0L1963.6,140L2094.5,100L2225.5,60L2356.4,80L2487.3,140L2618.2,100L2749.1,60L2880,0L3010.9,40L3141.8,160L3141.8,200L3010.9,200L2880,200L2749.1,200L2618.2,200L2487.3,200L2356.4,200L2225.5,200L2094.5,200L1963.6,200L1832.7,200L1701.8,200L1570.9,200L1440,200L1309.1,200L1178.2,200L1047.3,200L916.4,200L785.5,200L654.5,200L523.6,200L392.7,200L261.8,200L130.9,200L0,200Z"/></svg>